<?xml version="1.0" encoding="utf-8" standalone="no"?>
<!DOCTYPE svg PUBLIC "-//W3C//DTD SVG 1.1//EN"
  "http://www.w3.org/Graphics/SVG/1.1/DTD/svg11.dtd">
<!-- Created with matplotlib (https://matplotlib.org/) -->
<svg height="576pt" version="1.1" viewBox="0 0 864 576" width="864pt" xmlns="http://www.w3.org/2000/svg" xmlns:xlink="http://www.w3.org/1999/xlink">
 <defs>
  <style type="text/css">
*{stroke-linecap:butt;stroke-linejoin:round;}
  </style>
 </defs>
 <g id="figure_1">
  <g id="patch_1">
   <path d="M 0 576 
L 864 576 
L 864 0 
L 0 0 
z
" style="fill:#ffffff;"/>
  </g>
  <g id="axes_1">
   <g id="LineCollection_1">
    <path clip-path="url(#p9522bd92c0)" d="M 257.265 502.785 
L 247.5 493.02 
L 241.92 488.835 
L 239.8275 474.885 
L 241.92 460.935 
L 235.144286 446.985 
L 233.55 445.390714 
L 219.6 434.43 
L 216.81 433.035 
L 205.65 427.455 
L 194.49 433.035 
L 194.49 446.985 
L 194.49 460.935 
L 194.49 474.885 
L 200.07 488.835 
L 205.65 499.995 
L 208.44 502.785 
" style="fill:none;stroke:#440154;stroke-width:1.5;"/>
    <path clip-path="url(#p9522bd92c0)" d="M 553.47 502.785 
L 540.45 499.234091 
L 526.5 497.965909 
L 515.34 488.835 
L 512.55 487.513421 
L 508.365 488.835 
L 498.6 496.15875 
L 484.65 497.205 
L 470.7 497.9025 
L 456.75 499.197857 
L 442.8 501.39 
L 442.002857 502.785 
" style="fill:none;stroke:#440154;stroke-width:1.5;"/>
    <path clip-path="url(#p9522bd92c0)" d="M 622.755 502.785 
L 610.2 497.763 
L 596.25 497.763 
L 582.3 500.925 
L 568.35 501.669 
L 557.19 502.785 
" style="fill:none;stroke:#440154;stroke-width:1.5;"/>
    <path clip-path="url(#p9522bd92c0)" d="M 777.6 355.194 
L 763.65 350.73 
L 759.465 349.335 
L 749.7 344.995 
L 735.75 343.247727 
L 721.8 342.70875 
L 707.85 338.733 
L 699.48 335.385 
L 693.9 333.153 
L 679.95 329.805 
L 676.602 321.435 
L 666 310.833 
L 663.9075 307.485 
L 652.05 300.188077 
L 638.1 293.7675 
L 636.705 293.535 
L 624.15 291.252273 
L 610.2 285.444 
L 596.25 285.444 
L 582.3 286.90875 
L 568.35 285.444 
L 554.4 283.643182 
L 540.45 280.872692 
L 534.87 279.585 
L 526.5 275.997857 
L 512.55 271.215 
L 498.6 268.026429 
L 484.65 265.98375 
L 481.86 265.635 
L 470.7 264.519 
L 456.75 262.047857 
L 442.8 255.033 
L 437.22 251.685 
L 428.85 245.4075 
L 414.9 238.4325 
L 400.95 238.293 
L 400.02 237.735 
L 389.79 223.785 
L 387 222.39 
L 373.05 221.181 
L 359.1 221.502273 
L 345.15 221.853462 
L 331.2 222.307941 
L 317.25 221.502273 
L 307.377692 209.835 
L 303.3 206.521875 
L 290.208462 195.885 
L 289.35 194.870455 
L 285.63 195.885 
L 283.0725 209.835 
L 289.35 222.39 
L 292.14 223.785 
L 303.3 225.18 
L 317.25 227.372143 
L 331.2 232.155 
L 335.385 237.735 
L 345.15 244.245 
L 352.59 251.685 
L 359.1 257.265 
L 370.818 265.635 
L 373.05 267.229286 
L 382.66 279.585 
L 383.449091 293.535 
L 386.07 307.485 
L 387 309.717 
L 391.506923 321.435 
L 397.695 335.385 
L 400.95 348.405 
L 401.88 349.335 
L 413.885455 363.285 
L 414.9 368.865 
L 420.48 377.235 
L 426.618 391.185 
L 428.85 392.043462 
L 440.01 391.185 
L 442.8 389.79 
L 456.75 383.5125 
L 470.7 382.815 
L 479.07 391.185 
L 473.49 405.135 
L 479.07 419.085 
L 484.65 430.245 
L 487.44 433.035 
L 498.6 435.825 
L 512.55 445.59 
L 515.34 446.985 
L 526.5 447.782143 
L 540.45 447.915 
L 554.4 451.8675 
L 566.49 460.935 
L 568.35 462.051 
L 582.3 465.8175 
L 596.25 465.8175 
L 610.2 469.703571 
L 624.15 473.597308 
L 628.335 474.885 
L 638.1 482.697 
L 652.05 484.65 
L 653.245714 488.835 
L 652.05 490.356818 
L 640.6575 502.785 
" style="fill:none;stroke:#440154;stroke-width:1.5;"/>
    <path clip-path="url(#p9522bd92c0)" d="M 641.448 70.335 
L 650.934 84.285 
L 652.05 84.9825 
L 666 94.176818 
L 670.464 98.235 
L 679.95 103.815 
L 693.9 110.379706 
L 699.015 112.185 
L 707.85 115.719 
L 721.8 122.680714 
L 729.054 126.135 
L 735.75 129.855 
L 749.7 130.1805 
L 763.65 131.861842 
L 777.6 136.787727 
" style="fill:none;stroke:#440154;stroke-width:1.5;"/>
   </g>
  </g>
 </g>
 <defs>
  <clipPath id="p9522bd92c0">
   <rect height="432.45" width="669.6" x="108" y="70.335"/>
  </clipPath>
 </defs>
</svg>
