<?xml version="1.0" encoding="utf-8" standalone="no"?>
<!DOCTYPE svg PUBLIC "-//W3C//DTD SVG 1.1//EN"
  "http://www.w3.org/Graphics/SVG/1.1/DTD/svg11.dtd">
<!-- Created with matplotlib (https://matplotlib.org/) -->
<svg height="576pt" version="1.1" viewBox="0 0 864 576" width="864pt" xmlns="http://www.w3.org/2000/svg" xmlns:xlink="http://www.w3.org/1999/xlink">
 <defs>
  <style type="text/css">
*{stroke-linecap:butt;stroke-linejoin:round;}
  </style>
 </defs>
 <g id="figure_1">
  <g id="patch_1">
   <path d="M 0 576 
L 864 576 
L 864 0 
L 0 0 
z
" style="fill:#ffffff;"/>
  </g>
  <g id="axes_1">
   <g id="PathCollection_1">
    <path clip-path="url(#pb85136f123)" d="M 652.05 502.785 
L 666 502.785 
L 679.95 502.785 
L 693.9 502.785 
L 707.85 502.785 
L 721.8 502.785 
L 735.75 502.785 
L 749.7 502.785 
L 763.65 502.785 
L 777.6 502.785 
L 777.6 488.835 
L 777.6 474.885 
L 777.6 460.935 
L 777.6 446.985 
L 777.6 433.035 
L 777.6 419.085 
L 777.6 405.135 
L 777.6 391.185 
L 777.6 377.235 
L 777.6 369.927857 
L 768.3 363.285 
L 763.65 361.3475 
L 749.7 358.17 
L 735.75 356.89125 
L 721.8 357.601667 
L 707.85 359.963571 
L 696.225 363.285 
L 693.9 364.835 
L 679.95 367.935 
L 666 369.485 
L 652.05 374.135 
L 642.75 377.235 
L 638.1 381.885 
L 624.15 381.885 
L 614.85 391.185 
L 610.2 393.51 
L 596.25 400.485 
L 586.95 405.135 
L 582.3 409.785 
L 577.65 419.085 
L 568.35 428.385 
L 566.025 433.035 
L 568.35 442.335 
L 569.5125 446.985 
L 582.3 452.1 
L 596.25 452.1 
L 610.2 460.005 
L 611.75 460.935 
L 624.15 463.796538 
L 638.1 462.263571 
L 647.4 460.935 
L 652.05 459.7725 
L 666 459.7725 
L 670.65 460.935 
L 679.95 465.585 
L 693.9 473.335 
L 698.55 474.885 
L 693.9 476.435 
L 679.95 477.985 
L 666 483.151667 
L 662.346429 488.835 
L 652.05 501.939545 
L 651.275 502.785 
z
" style="fill:#21918c;"/>
    <path clip-path="url(#pb85136f123)" d="M 596.25 353.985 
L 610.2 353.985 
L 619.5 349.335 
L 624.15 347.01 
L 638.1 338.485 
L 639.96 335.385 
L 652.05 326.749286 
L 656.7 321.435 
L 652.05 313.995 
L 645.54 307.485 
L 638.1 304.385 
L 624.15 302.835 
L 610.2 300.177857 
L 596.25 300.177857 
L 582.3 301.801667 
L 568.35 300.177857 
L 554.4 297.255 
L 549.75 293.535 
L 540.45 290.673462 
L 526.5 292.3725 
L 512.55 289.66 
L 498.6 286.227857 
L 484.65 282.685 
L 470.7 280.515 
L 456.75 280.515 
L 452.1 279.585 
L 442.8 278.035 
L 428.85 274.935 
L 414.9 271.835 
L 400.95 270.285 
L 396.816667 279.585 
L 395.835 293.535 
L 396.6875 307.485 
L 400.95 320.2725 
L 402.1125 321.435 
L 414.9 331.665 
L 421.1 335.385 
L 428.85 340.035 
L 442.8 344.685 
L 456.75 344.685 
L 470.7 343.135 
L 484.65 347.01 
L 498.6 347.01 
L 512.55 347.01 
L 526.5 344.685 
L 540.45 344.685 
L 554.4 347.01 
L 568.35 347.01 
L 582.3 347.01 
L 586.95 349.335 
z
" style="fill:#21918c;"/>
    <path clip-path="url(#pb85136f123)" d="M 777.6 130.996364 
L 777.6 126.135 
L 777.6 112.185 
L 777.6 98.235 
L 777.6 84.285 
L 777.6 70.335 
L 763.65 70.335 
L 749.7 70.335 
L 735.75 70.335 
L 721.8 70.335 
L 707.85 70.335 
L 693.9 70.335 
L 679.95 70.335 
L 666.664286 70.335 
L 668.325 84.285 
L 679.95 94.618333 
L 684.01875 98.235 
L 693.9 102.885 
L 707.85 108.642143 
L 714.05 112.185 
L 721.8 116.613571 
L 735.75 122.953421 
L 749.7 123.920714 
L 763.65 125.249286 
L 765.716667 126.135 
z
" style="fill:#21918c;"/>
   </g>
  </g>
 </g>
 <defs>
  <clipPath id="pb85136f123">
   <rect height="432.45" width="669.6" x="108" y="70.335"/>
  </clipPath>
 </defs>
</svg>
