<?xml version="1.0" encoding="utf-8" standalone="no"?>
<!DOCTYPE svg PUBLIC "-//W3C//DTD SVG 1.1//EN"
  "http://www.w3.org/Graphics/SVG/1.1/DTD/svg11.dtd">
<!-- Created with matplotlib (https://matplotlib.org/) -->
<svg height="576pt" version="1.1" viewBox="0 0 864 576" width="864pt" xmlns="http://www.w3.org/2000/svg" xmlns:xlink="http://www.w3.org/1999/xlink">
 <defs>
  <style type="text/css">
*{stroke-linecap:butt;stroke-linejoin:round;}
  </style>
 </defs>
 <g id="figure_1">
  <g id="patch_1">
   <path d="M 0 576 
L 864 576 
L 864 0 
L 0 0 
z
" style="fill:#ffffff;"/>
  </g>
  <g id="axes_1">
   <g id="PathCollection_1">
    <path clip-path="url(#p9d26990099)" d="M 121.95 502.785 
L 135.9 502.785 
L 149.85 502.785 
L 163.8 502.785 
L 177.75 502.785 
L 191.7 502.785 
L 205.65 502.785 
L 219.6 502.785 
L 233.55 502.785 
L 247.5 502.785 
L 261.45 502.785 
L 275.4 502.785 
L 289.35 502.785 
L 303.3 502.785 
L 317.25 502.785 
L 331.2 502.785 
L 345.15 502.785 
L 359.1 502.785 
L 373.05 502.785 
L 387 502.785 
L 400.95 502.785 
L 414.9 502.785 
L 428.85 502.785 
L 442.8 502.785 
L 456.75 502.785 
L 470.7 502.785 
L 484.65 502.785 
L 498.6 502.785 
L 512.55 502.785 
L 526.5 502.785 
L 540.45 502.785 
L 554.4 502.785 
L 568.35 502.785 
L 582.3 502.785 
L 596.25 502.785 
L 610.2 502.785 
L 624.15 502.785 
L 638.1 502.785 
L 652.05 502.785 
L 666 502.785 
L 679.95 502.785 
L 693.9 502.785 
L 707.85 502.785 
L 721.8 502.785 
L 735.75 502.785 
L 749.7 502.785 
L 763.65 502.785 
L 777.6 502.785 
L 777.6 488.835 
L 777.6 474.885 
L 777.6 460.935 
L 777.6 446.985 
L 777.6 433.035 
L 777.6 419.085 
L 777.6 405.135 
L 777.6 391.185 
L 777.6 377.235 
L 777.6 363.285 
L 777.6 349.335 
L 777.6 335.385 
L 777.6 321.435 
L 777.6 307.485 
L 777.6 293.535 
L 777.6 279.585 
L 777.6 265.635 
L 777.6 251.685 
L 777.6 237.735 
L 777.6 223.785 
L 777.6 209.835 
L 777.6 195.885 
L 777.6 181.935 
L 777.6 167.985 
L 777.6 154.035 
L 777.6 140.085 
L 777.6 126.135 
L 777.6 112.185 
L 777.6 98.235 
L 777.6 84.285 
L 777.6 70.335 
L 763.65 70.335 
L 749.7 70.335 
L 735.75 70.335 
L 721.8 70.335 
L 707.85 70.335 
L 693.9 70.335 
L 679.95 70.335 
L 666 70.335 
L 652.05 70.335 
L 638.1 70.335 
L 624.15 70.335 
L 610.2 70.335 
L 596.25 70.335 
L 582.3 70.335 
L 568.35 70.335 
L 554.4 70.335 
L 540.45 70.335 
L 526.5 70.335 
L 512.55 70.335 
L 503.9475 70.335 
L 512.55 82.624286 
L 514.875 84.285 
L 526.5 95.91 
L 538.125 98.235 
L 540.45 99.01 
L 554.4 105.79125 
L 568.35 110.2475 
L 579.975 112.185 
L 568.35 117.9975 
L 554.4 120.71 
L 540.45 125.36 
L 526.5 125.36 
L 512.55 124.9725 
L 511.3875 126.135 
L 512.55 128.46 
L 516.425 140.085 
L 512.55 142.0225 
L 498.6 145.2 
L 484.65 145.2 
L 470.7 143.738571 
L 456.75 141.745714 
L 442.8 143.281875 
L 428.85 143.738571 
L 414.9 145.731429 
L 400.95 144.3475 
L 387 145.731429 
L 373.05 145.731429 
L 359.1 145.731429 
L 345.15 143.738571 
L 332.3625 140.085 
L 331.2 139.62 
L 317.25 131.4825 
L 303.3 127.84 
L 301.332692 126.135 
L 289.35 117.480833 
L 281.40625 112.185 
L 275.4 108.752857 
L 261.45 106.640769 
L 247.5 101.431875 
L 233.55 102.4975 
L 221.925 112.185 
L 219.6 113.241818 
L 205.65 117.5325 
L 191.7 121.817143 
L 186.6625 126.135 
L 183.0975 140.085 
L 188.341667 154.035 
L 191.7 161.59125 
L 194.025 167.985 
L 192.756818 181.935 
L 192.756818 195.885 
L 195.293182 209.835 
L 205.06875 223.785 
L 205.65 224.36625 
L 216.345 237.735 
L 219.6 241.80375 
L 226.1875 251.685 
L 232.96875 265.635 
L 233.55 265.8675 
L 247.5 274.47 
L 256.025 279.585 
L 261.45 282.2975 
L 275.4 291.874286 
L 277.725 293.535 
L 288.76875 307.485 
L 289.35 308.6475 
L 294.465 321.435 
L 295.9375 335.385 
L 295.74375 349.335 
L 295.74375 363.285 
L 299.23125 377.235 
L 303.3 382.66 
L 309.69375 391.185 
L 316.475 405.135 
L 317.25 407.46 
L 321.125 419.085 
L 317.25 424.8975 
L 313.375 419.085 
L 303.3 413.04 
L 295.395 405.135 
L 289.35 399.09 
L 281.445 391.185 
L 275.4 385.14 
L 268.8125 377.235 
L 261.45 368.4 
L 255.05625 363.285 
L 247.5 357.24 
L 233.55 350.788125 
L 231.889286 349.335 
L 219.6 338.581875 
L 213.20625 335.385 
L 205.65 329.34 
L 191.7 325.3875 
L 185.1125 321.435 
L 177.75 315.124286 
L 163.8 308.541818 
L 160.89375 307.485 
L 149.85 302.576667 
L 135.9 296.82875 
L 131.508333 293.535 
L 121.95 286.36625 
L 108 282.781875 
L 108 293.535 
L 108 307.485 
L 108 321.435 
L 108 335.385 
L 108 349.335 
L 108 363.285 
L 108 377.235 
L 108 391.185 
L 108 405.135 
L 108 419.085 
L 108 433.035 
L 108 446.985 
L 108 460.935 
L 108 474.885 
L 108 488.835 
L 108 502.785 
z
" style="fill:#21908d;"/>
   </g>
  </g>
 </g>
 <defs>
  <clipPath id="p9d26990099">
   <rect height="432.45" width="669.6" x="108" y="70.335"/>
  </clipPath>
 </defs>
</svg>
