<?xml version="1.0" encoding="utf-8" standalone="no"?>
<!DOCTYPE svg PUBLIC "-//W3C//DTD SVG 1.1//EN"
  "http://www.w3.org/Graphics/SVG/1.1/DTD/svg11.dtd">
<!-- Created with matplotlib (https://matplotlib.org/) -->
<svg height="576pt" version="1.1" viewBox="0 0 864 576" width="864pt" xmlns="http://www.w3.org/2000/svg" xmlns:xlink="http://www.w3.org/1999/xlink">
 <defs>
  <style type="text/css">
*{stroke-linecap:butt;stroke-linejoin:round;}
  </style>
 </defs>
 <g id="figure_1">
  <g id="patch_1">
   <path d="M 0 576 
L 864 576 
L 864 0 
L 0 0 
z
" style="fill:#ffffff;"/>
  </g>
  <g id="axes_1">
   <g id="PathCollection_1">
    <path clip-path="url(#pe4a46fefe6)" d="M 121.95 502.785 
L 135.9 502.785 
L 149.85 502.785 
L 163.8 502.785 
L 177.75 502.785 
L 191.7 502.785 
L 205.65 502.785 
L 219.6 502.785 
L 233.55 502.785 
L 247.5 502.785 
L 261.45 502.785 
L 273.075 502.785 
L 261.45 490.329643 
L 259.955357 488.835 
L 261.45 478.3725 
L 261.986538 474.885 
L 261.45 471.3975 
L 259.955357 460.935 
L 256.21875 446.985 
L 252.3825 433.035 
L 247.5 429.5475 
L 233.55 422.5725 
L 229.190625 419.085 
L 220.995 405.135 
L 219.6 403.525385 
L 205.65 392.3475 
L 204.255 391.185 
L 191.7 380.7225 
L 186.46875 377.235 
L 177.75 372.875625 
L 169.225 363.285 
L 163.8 358.4025 
L 152.465625 349.335 
L 149.85 347.94 
L 135.9 344.4525 
L 121.95 344.975625 
L 116.1375 349.335 
L 108 359.1 
L 108 363.285 
L 108 377.235 
L 108 391.185 
L 108 405.135 
L 108 419.085 
L 108 433.035 
L 108 446.985 
L 108 460.935 
L 108 474.885 
L 108 488.835 
L 108 502.785 
z
" style="fill:#21918c;"/>
    <path clip-path="url(#pe4a46fefe6)" d="M 428.85 502.785 
L 442.8 502.785 
L 456.75 502.785 
L 470.7 502.785 
L 484.65 502.785 
L 498.6 502.785 
L 512.55 502.785 
L 526.5 502.785 
L 540.45 502.785 
L 554.4 502.785 
L 568.35 502.785 
L 582.3 502.785 
L 596.25 502.785 
L 610.2 502.785 
L 624.15 502.785 
L 638.1 502.785 
L 652.05 502.785 
L 666 502.785 
L 679.95 502.785 
L 693.9 502.785 
L 707.85 502.785 
L 721.8 502.785 
L 735.75 502.785 
L 749.7 502.785 
L 763.65 502.785 
L 777.6 502.785 
L 777.6 488.835 
L 777.6 474.885 
L 777.6 460.935 
L 777.6 446.985 
L 777.6 433.035 
L 777.6 419.085 
L 777.6 405.135 
L 777.6 391.185 
L 777.6 377.235 
L 777.6 363.285 
L 777.6 349.335 
L 777.6 337.287273 
L 773.415 335.385 
L 763.65 327.2475 
L 749.7 322.306875 
L 735.75 323.76 
L 730.51875 321.435 
L 721.8 312.71625 
L 711.3375 307.485 
L 707.85 305.74125 
L 693.9 294.93 
L 690.4125 293.535 
L 679.95 291.4425 
L 666 290.62875 
L 652.05 285.486923 
L 638.1 281.764688 
L 633.117857 279.585 
L 624.15 272.61 
L 611.595 265.635 
L 610.2 264.638571 
L 596.25 264.24 
L 582.3 261.45 
L 568.35 257.4975 
L 554.4 255.1725 
L 540.45 252.8475 
L 533.475 251.685 
L 526.5 249.94125 
L 512.55 249.36 
L 498.6 244.71 
L 484.65 241.92 
L 470.7 239.13 
L 468.375 237.735 
L 456.75 229.01625 
L 451.51875 223.785 
L 442.8 217.9725 
L 428.85 214.817143 
L 414.9 214.194375 
L 400.95 214.7175 
L 387 211.7725 
L 378.28125 209.835 
L 373.05 208.09125 
L 359.1 206.3475 
L 345.15 207.783529 
L 336.43125 209.835 
L 331.2 211.065882 
L 327.7125 209.835 
L 317.25 206.142353 
L 304.794643 195.885 
L 303.3 194.275385 
L 292.605 181.935 
L 289.35 177.0525 
L 278.015625 167.985 
L 275.4 166.24125 
L 261.45 164.11 
L 254.475 167.985 
L 248.895 181.935 
L 247.5 183.33 
L 240.525 195.885 
L 244.817308 209.835 
L 247.5 213.71 
L 256.5675 223.785 
L 261.45 226.836563 
L 275.4 233.296364 
L 282.375 237.735 
L 289.35 242.6175 
L 303.3 249.069375 
L 313.7625 251.685 
L 317.25 252.26625 
L 331.2 252.681429 
L 341.275 265.635 
L 345.15 269.994375 
L 357.9375 279.585 
L 359.1 280.2825 
L 367.935 293.535 
L 369.879545 307.485 
L 373.05 314.46 
L 375.95625 321.435 
L 381.76875 335.385 
L 386.41875 349.335 
L 387 350.4975 
L 395.525 363.285 
L 400.95 371.4225 
L 403.275 377.235 
L 406.617188 391.185 
L 413.405357 405.135 
L 414.9 406.442813 
L 428.85 406.629643 
L 442.8 412.11 
L 445.789286 419.085 
L 452.875 433.035 
L 456.75 435.526071 
L 470.7 443.11 
L 475.682143 446.985 
L 484.65 453.96 
L 498.6 458.252308 
L 512.55 459.54 
L 523.0125 460.935 
L 526.5 462.33 
L 540.45 465.917143 
L 554.4 471.714545 
L 559.382143 474.885 
L 554.4 481.86 
L 540.45 481.1625 
L 526.5 480.591818 
L 512.55 477.454737 
L 498.6 477.79125 
L 484.65 476.787273 
L 470.7 480.365357 
L 456.75 476.9775 
L 451.51875 474.885 
L 442.8 472.393929 
L 435.825 474.885 
L 428.85 486.51 
L 428.4625 488.835 
L 428.351786 502.785 
z
" style="fill:#21918c;"/>
    <path clip-path="url(#pe4a46fefe6)" d="M 735.75 140.402045 
L 742.725 140.085 
L 749.7 139.73625 
L 752.025 140.085 
L 763.65 142.264688 
L 777.6 147.99 
L 777.6 140.085 
L 777.6 126.135 
L 777.6 112.185 
L 777.6 98.235 
L 777.6 84.285 
L 777.6 70.335 
L 763.65 70.335 
L 749.7 70.335 
L 735.75 70.335 
L 721.8 70.335 
L 707.85 70.335 
L 693.9 70.335 
L 679.95 70.335 
L 666 70.335 
L 652.05 70.335 
L 638.1 70.335 
L 624.15 70.335 
L 614.385 70.335 
L 624.15 78.4725 
L 629.132143 84.285 
L 638.1 89.113846 
L 652.05 96.927188 
L 653.79375 98.235 
L 666 107.389688 
L 674.525 112.185 
L 679.95 114.62625 
L 693.9 120.628421 
L 704.3625 126.135 
L 707.85 127.970526 
L 721.8 135.256154 
L 734.355 140.085 
z
" style="fill:#21918c;"/>
   </g>
  </g>
 </g>
 <defs>
  <clipPath id="pe4a46fefe6">
   <rect height="432.45" width="669.6" x="108" y="70.335"/>
  </clipPath>
 </defs>
</svg>
