<?xml version="1.0" encoding="utf-8" standalone="no"?>
<!DOCTYPE svg PUBLIC "-//W3C//DTD SVG 1.1//EN"
  "http://www.w3.org/Graphics/SVG/1.1/DTD/svg11.dtd">
<!-- Created with matplotlib (https://matplotlib.org/) -->
<svg height="576pt" version="1.1" viewBox="0 0 864 576" width="864pt" xmlns="http://www.w3.org/2000/svg" xmlns:xlink="http://www.w3.org/1999/xlink">
 <defs>
  <style type="text/css">
*{stroke-linecap:butt;stroke-linejoin:round;}
  </style>
 </defs>
 <g id="figure_1">
  <g id="patch_1">
   <path d="M 0 576 
L 864 576 
L 864 0 
L 0 0 
z
" style="fill:#ffffff;"/>
  </g>
  <g id="axes_1">
   <g id="PathCollection_1">
    <path clip-path="url(#pe8d3fdd7b7)" d="M 121.95 502.785 
L 135.9 502.785 
L 149.85 502.785 
L 163.8 502.785 
L 177.75 502.785 
L 191.7 502.785 
L 205.65 502.785 
L 219.6 502.785 
L 233.55 502.785 
L 247.5 502.785 
L 261.45 502.785 
L 275.4 502.785 
L 289.35 502.785 
L 300.39375 502.785 
L 290.125 488.835 
L 289.35 487.285 
L 286.488462 474.885 
L 285.968182 460.935 
L 280.566667 446.985 
L 275.4 437.685 
L 274.108333 433.035 
L 267.65 419.085 
L 261.45 413.770714 
L 247.5 406.795714 
L 245.386364 405.135 
L 234.015 391.185 
L 233.55 390.60375 
L 219.6 378.01 
L 218.825 377.235 
L 205.65 365.073462 
L 201.775 363.285 
L 191.7 357.789545 
L 181.366667 349.335 
L 177.75 346.08 
L 165.866667 335.385 
L 163.8 334.056429 
L 149.85 327.726176 
L 139.155 321.435 
L 135.9 319.400625 
L 121.95 312.135 
L 110.583333 321.435 
L 108 323.76 
L 108 335.385 
L 108 349.335 
L 108 363.285 
L 108 377.235 
L 108 391.185 
L 108 405.135 
L 108 419.085 
L 108 433.035 
L 108 446.985 
L 108 460.935 
L 108 474.885 
L 108 488.835 
L 108 502.785 
z
" style="fill:#21908d;"/>
    <path clip-path="url(#pe8d3fdd7b7)" d="M 414.9 502.785 
L 428.85 502.785 
L 442.8 502.785 
L 456.75 502.785 
L 470.7 502.785 
L 484.65 502.785 
L 498.6 502.785 
L 512.55 502.785 
L 526.5 502.785 
L 540.45 502.785 
L 554.4 502.785 
L 568.35 502.785 
L 582.3 502.785 
L 596.25 502.785 
L 610.2 502.785 
L 624.15 502.785 
L 638.1 502.785 
L 652.05 502.785 
L 666 502.785 
L 679.95 502.785 
L 693.9 502.785 
L 707.85 502.785 
L 721.8 502.785 
L 735.75 502.785 
L 749.7 502.785 
L 763.65 502.785 
L 777.6 502.785 
L 777.6 488.835 
L 777.6 474.885 
L 777.6 460.935 
L 777.6 446.985 
L 777.6 433.035 
L 777.6 419.085 
L 777.6 405.135 
L 777.6 391.185 
L 777.6 377.235 
L 777.6 363.285 
L 777.6 349.335 
L 777.6 335.385 
L 777.6 321.435 
L 777.6 307.485 
L 777.6 298.185 
L 763.65 295.86 
L 749.7 295.648636 
L 747.586364 293.535 
L 735.75 280.515 
L 734.975 279.585 
L 721.8 266.41 
L 720.87 265.635 
L 707.85 253.798636 
L 696.225 251.685 
L 693.9 250.5225 
L 679.95 246.26 
L 666 246.26 
L 652.05 240.06 
L 649.725 237.735 
L 638.1 229.985 
L 624.15 224.715 
L 622.6 223.785 
L 610.2 216.345 
L 596.25 212.418333 
L 582.3 211.948636 
L 576.4875 209.835 
L 568.35 205.185 
L 555.33 195.885 
L 554.4 195.368333 
L 540.45 189.84 
L 526.5 186.1975 
L 512.55 185.316818 
L 503.25 181.935 
L 498.6 180.695 
L 493.95 181.935 
L 484.65 186.585 
L 472.25 181.935 
L 470.7 181.512273 
L 456.75 177.86625 
L 442.8 174.37875 
L 428.85 175.218333 
L 414.9 177.707727 
L 400.95 178.358077 
L 387 178.06 
L 373.05 178.358077 
L 359.1 180.244091 
L 349.8 181.935 
L 345.15 182.968333 
L 335.85 181.935 
L 331.2 181.47 
L 330.0375 181.935 
L 317.25 185.588571 
L 313.84 181.935 
L 304.075 167.985 
L 303.3 166.8225 
L 296.90625 154.035 
L 289.35 146.47875 
L 276.5625 140.085 
L 275.4 139.50375 
L 261.45 134.589545 
L 247.5 132.7225 
L 233.55 135.857727 
L 224.25 140.085 
L 219.6 145.8975 
L 217.096154 154.035 
L 218.36 167.985 
L 217.43 181.935 
L 218.271429 195.885 
L 219.6 199.605 
L 222.796875 209.835 
L 231.859091 223.785 
L 233.55 225.335 
L 247.5 236.443333 
L 249.4375 237.735 
L 261.45 247.345 
L 267.96 251.685 
L 275.4 257.408077 
L 286.095 265.635 
L 289.35 267.669375 
L 303.3 272.942143 
L 314.925 279.585 
L 317.25 281.275909 
L 331.2 291.5975 
L 334.10625 293.535 
L 340.5 307.485 
L 336.883333 321.435 
L 335.075 335.385 
L 344.56875 349.335 
L 345.15 349.851667 
L 359.1 358.635 
L 361.683333 363.285 
L 368.98125 377.235 
L 373.05 382.66 
L 378.733333 391.185 
L 386.577273 405.135 
L 387 405.557727 
L 398.446154 419.085 
L 400.95 424.51 
L 414.9 430.71 
L 417.483333 433.035 
L 414.9 436.356429 
L 400.95 439.42875 
L 387 444.918333 
L 385.8375 446.985 
L 387 448.845 
L 400.95 454.54125 
L 404.603571 460.935 
L 408.7 474.885 
L 409.585714 488.835 
L 408.39 502.785 
z
" style="fill:#21908d;"/>
    <path clip-path="url(#pe8d3fdd7b7)" d="M 777.6 172.635 
L 777.6 167.985 
L 777.6 154.035 
L 777.6 140.085 
L 777.6 126.135 
L 777.6 112.185 
L 777.6 98.235 
L 777.6 84.285 
L 777.6 70.335 
L 763.65 70.335 
L 749.7 70.335 
L 735.75 70.335 
L 721.8 70.335 
L 707.85 70.335 
L 693.9 70.335 
L 679.95 70.335 
L 666 70.335 
L 652.05 70.335 
L 638.1 70.335 
L 624.15 70.335 
L 610.2 70.335 
L 596.25 70.335 
L 582.3 70.335 
L 568.35 70.335 
L 554.4 70.335 
L 547.757143 70.335 
L 554.4 73.435 
L 568.35 80.668333 
L 576.4875 84.285 
L 582.3 86.732368 
L 596.25 91.149286 
L 610.2 96.867353 
L 612.783333 98.235 
L 624.15 102.885 
L 638.1 107.756429 
L 644.742857 112.185 
L 652.05 116.835 
L 666 124.911316 
L 668.90625 126.135 
L 679.95 132.931154 
L 693.9 137.392895 
L 699.015 140.085 
L 707.85 148.116818 
L 721.8 152.8725 
L 729.55 154.035 
L 735.75 157.755 
L 749.7 162.670714 
L 763.65 165.871364 
L 771.4 167.985 
z
" style="fill:#21908d;"/>
   </g>
  </g>
 </g>
 <defs>
  <clipPath id="pe8d3fdd7b7">
   <rect height="432.45" width="669.6" x="108" y="70.335"/>
  </clipPath>
 </defs>
</svg>
