<?xml version="1.0" encoding="utf-8" standalone="no"?>
<!DOCTYPE svg PUBLIC "-//W3C//DTD SVG 1.1//EN"
  "http://www.w3.org/Graphics/SVG/1.1/DTD/svg11.dtd">
<!-- Created with matplotlib (https://matplotlib.org/) -->
<svg height="576pt" version="1.1" viewBox="0 0 864 576" width="864pt" xmlns="http://www.w3.org/2000/svg" xmlns:xlink="http://www.w3.org/1999/xlink">
 <defs>
  <style type="text/css">
*{stroke-linecap:butt;stroke-linejoin:round;}
  </style>
 </defs>
 <g id="figure_1">
  <g id="patch_1">
   <path d="M 0 576 
L 864 576 
L 864 0 
L 0 0 
z
" style="fill:#ffffff;"/>
  </g>
  <g id="axes_1">
   <g id="LineCollection_1">
    <path clip-path="url(#p8969a42ef5)" d="M 286.56 502.785 
L 277.074 488.835 
L 276.687692 474.885 
L 275.4 466.515 
L 274.541538 460.935 
L 270.006 446.985 
L 267.03 433.035 
L 261.45 423.904091 
L 253.877143 419.085 
L 247.5 415.896429 
L 233.803636 405.135 
L 233.55 404.825 
L 222.39 391.185 
L 219.6 388.6275 
L 208.2075 377.235 
L 205.65 374.874231 
L 191.7 367.223824 
L 186.549231 363.285 
L 177.75 355.659 
L 170.974286 349.335 
L 163.8 342.639 
L 150.19875 335.385 
L 149.85 335.220882 
L 135.9 328.210714 
L 121.95 323.946 
L 109.24 335.385 
L 108 336.399545 
" style="fill:none;stroke:#440154;stroke-width:1.5;"/>
    <path clip-path="url(#p8969a42ef5)" d="M 777.6 315.576 
L 763.65 308.415 
L 752.49 307.485 
L 749.7 307.231364 
L 736.003636 293.535 
L 735.75 293.256 
L 724.3575 279.585 
L 721.8 277.0275 
L 708.129 265.635 
L 707.85 265.381364 
L 706.92 265.635 
L 693.9 271.215 
L 679.95 269.222143 
L 666 267.867 
L 652.05 266.875 
L 646.47 265.635 
L 638.1 257.265 
L 635.868 251.685 
L 624.615 237.735 
L 624.15 237.456 
L 610.2 230.41125 
L 596.25 227.372143 
L 583.695 223.785 
L 582.3 223.531364 
L 568.35 220.375 
L 554.4 212.067 
L 552.168 209.835 
L 540.45 203.325 
L 526.5 198.117 
L 512.55 198.117 
L 498.6 201.465 
L 484.65 204.72 
L 470.7 200.07 
L 464.4225 195.885 
L 456.75 192.475 
L 442.8 190.305 
L 428.85 193.095 
L 414.9 192.04875 
L 400.95 192.04875 
L 387 192.04875 
L 373.05 190.925 
L 359.1 195.53625 
L 356.31 195.885 
L 345.15 196.541471 
L 331.2 196.743462 
L 325.62 195.885 
L 317.25 194.689286 
L 305.346 181.935 
L 303.3 179.145 
L 295.6275 167.985 
L 289.35 159.615 
L 280.98 154.035 
L 275.4 150.315 
L 261.45 145.665 
L 247.5 144.425 
L 233.55 149.075 
L 229.086 154.035 
L 227.97 167.985 
L 226.375714 181.935 
L 226.000588 195.885 
L 230.76 209.835 
L 233.55 213.893182 
L 240.804 223.785 
L 247.5 229.365 
L 260.055 237.735 
L 261.45 238.851 
L 275.4 247.898571 
L 280.219091 251.685 
L 289.35 258.859286 
L 303.3 263.841429 
L 309.5775 265.635 
L 317.25 268.704 
L 329.34 279.585 
L 331.2 280.98 
L 345.15 289.984091 
L 350.73 293.535 
L 352.505455 307.485 
L 351.04 321.435 
L 358.542 335.385 
L 359.1 335.85 
L 369.21375 349.335 
L 373.05 357.0075 
L 375.561 363.285 
L 386.601429 377.235 
L 387 377.9325 
L 391.819091 391.185 
L 399.276 405.135 
L 400.95 407.2275 
L 414.9 418.3875 
L 420.48 419.085 
L 428.85 424.665 
L 431.64 433.035 
L 441.87 446.985 
L 428.85 451.8675 
L 414.9 457.587 
L 413.704286 460.935 
L 414.9 464.283 
L 418.434 474.885 
L 417.845 488.835 
L 414.9 502.0875 
L 414.7605 502.785 
" style="fill:none;stroke:#440154;stroke-width:1.5;"/>
    <path clip-path="url(#p8969a42ef5)" d="M 562.491 70.335 
L 568.35 73.59 
L 582.3 78.061154 
L 593.858571 84.285 
L 596.25 85.082143 
L 610.2 89.372647 
L 624.15 96.303462 
L 627.737143 98.235 
L 638.1 101.689286 
L 652.05 110.391429 
L 654.561 112.185 
L 666 118.205526 
L 679.95 124.182 
L 684.29 126.135 
L 693.9 130.687105 
L 707.85 138.029211 
L 711.105 140.085 
L 721.8 146.502 
L 735.75 149.089091 
L 749.7 150.315 
L 763.092 154.035 
L 763.65 154.288636 
L 777.6 160.731 
" style="fill:none;stroke:#440154;stroke-width:1.5;"/>
    <path clip-path="url(#p8969a42ef5)" d="M 456.75 461.793462 
L 453.03 460.935 
L 456.75 457.215 
L 458.61 460.935 
L 456.75 461.793462 
" style="fill:none;stroke:#440154;stroke-width:1.5;"/>
   </g>
  </g>
 </g>
 <defs>
  <clipPath id="p8969a42ef5">
   <rect height="432.45" width="669.6" x="108" y="70.335"/>
  </clipPath>
 </defs>
</svg>
