<?xml version="1.0" encoding="utf-8" standalone="no"?>
<!DOCTYPE svg PUBLIC "-//W3C//DTD SVG 1.1//EN"
  "http://www.w3.org/Graphics/SVG/1.1/DTD/svg11.dtd">
<!-- Created with matplotlib (https://matplotlib.org/) -->
<svg height="576pt" version="1.1" viewBox="0 0 864 576" width="864pt" xmlns="http://www.w3.org/2000/svg" xmlns:xlink="http://www.w3.org/1999/xlink">
 <defs>
  <style type="text/css">
*{stroke-linecap:butt;stroke-linejoin:round;}
  </style>
 </defs>
 <g id="figure_1">
  <g id="patch_1">
   <path d="M 0 576 
L 864 576 
L 864 0 
L 0 0 
z
" style="fill:#ffffff;"/>
  </g>
  <g id="axes_1">
   <g id="LineCollection_1">
    <path clip-path="url(#p88989444b8)" d="M 357.705 502.785 
L 353.52 488.835 
L 345.15 484.65 
L 338.64 474.885 
L 331.2 463.725 
L 329.34 460.935 
L 322.83 446.985 
L 317.25 442.521 
L 309.345 433.035 
L 303.3 425.781 
L 294.93 419.085 
L 289.35 413.505 
L 283.77 405.135 
L 275.4 396.765 
L 269.82 391.185 
L 261.45 381.141 
L 257.544 377.235 
L 247.5 368.865 
L 240.804 363.285 
L 233.55 358.75125 
L 222.788571 349.335 
L 219.6 346.545 
L 205.65 339.57 
L 198.954 335.385 
L 191.7 331.758 
L 177.75 323.0625 
L 174.96 321.435 
L 163.8 314.333182 
L 149.85 309.1125 
L 146.595 307.485 
L 135.9 302.1375 
L 124.43 293.535 
L 121.95 291.675 
L 108 290.745 
" style="fill:none;stroke:#440154;stroke-width:1.5;"/>
    <path clip-path="url(#p88989444b8)" d="M 510.318 70.335 
L 512.55 73.523571 
L 526.5 83.665 
L 528.36 84.285 
L 540.45 89.466429 
L 554.4 94.515 
L 565.56 98.235 
L 568.35 99.63 
L 582.3 103.416429 
L 596.25 110.015 
L 602.76 112.185 
L 610.2 116.649 
L 624.15 124.74 
L 626.01 126.135 
L 638.1 135.2025 
L 642.9825 140.085 
L 638.1 146.595 
L 624.15 146.595 
L 610.2 149.85 
L 596.25 149.85 
L 582.3 146.595 
L 568.35 146.595 
L 554.4 144.9675 
L 540.45 144.9675 
L 526.5 148.455 
L 512.55 152.64 
L 508.365 154.035 
L 498.6 157.29 
L 484.65 156.825 
L 474.885 154.035 
L 470.7 152.839286 
L 456.75 150.846429 
L 442.8 151.245 
L 428.85 152.839286 
L 420.48 154.035 
L 414.9 154.542273 
L 400.95 154.655 
L 387 154.593 
L 373.05 154.655 
L 359.1 154.655 
L 353.52 154.035 
L 345.15 152.839286 
L 331.2 148.853571 
L 320.97 140.085 
L 317.25 137.853 
L 303.3 132.087 
L 296.432308 126.135 
L 289.35 121.02 
L 276.0975 112.185 
L 275.4 111.786429 
L 261.45 111.541154 
L 247.5 109.395 
L 236.34 112.185 
L 233.55 112.692273 
L 219.6 119.033182 
L 205.65 123.903 
L 200.07 126.135 
L 191.7 134.505 
L 189.468 140.085 
L 191.7 145.665 
L 195.048 154.035 
L 199.816364 167.985 
L 198.548182 181.935 
L 198.548182 195.885 
L 201.084545 209.835 
L 205.65 216.1125 
L 210.371538 223.785 
L 219.6 233.7825 
L 223.911818 237.735 
L 233.55 249.515 
L 236.34 251.685 
L 247.5 262.845 
L 252.3825 265.635 
L 261.45 271.68 
L 270.936 279.585 
L 275.4 282.773571 
L 289.35 292.419 
L 291.21 293.535 
L 301.626 307.485 
L 303.3 311.67 
L 307.206 321.435 
L 307.206 335.385 
L 309.996 349.335 
L 314.46 363.285 
L 317.25 367.47 
L 322.1325 377.235 
L 328.41 391.185 
L 331.2 395.37 
L 337.71 405.135 
L 345.15 416.295 
L 347.01 419.085 
L 351.66 433.035 
L 356.31 446.985 
L 359.1 455.355 
L 360.495 460.935 
L 360.96 474.885 
L 361.89 488.835 
L 361.89 502.785 
" style="fill:none;stroke:#440154;stroke-width:1.5;"/>
   </g>
  </g>
 </g>
 <defs>
  <clipPath id="p88989444b8">
   <rect height="432.45" width="669.6" x="108" y="70.335"/>
  </clipPath>
 </defs>
</svg>
